<?xml version="1.0" ?><!DOCTYPE svg  PUBLIC '-//W3C//DTD SVG 1.1//EN'  'http://www.w3.org/Graphics/SVG/1.1/DTD/svg11.dtd'><svg enable-background="new 0 0 100 100" height="100px" id="Layer_1" version="1.1" viewBox="0 0 100 100" width="100px" xml:space="preserve" xmlns="http://www.w3.org/2000/svg" xmlns:xlink="http://www.w3.org/1999/xlink"><g><path d="M9.333,34.267c0.975,0,1.622,0.973,2.769,3.037c1.195,2.15,2.831,5.096,6.267,5.096   c3.435,0,5.071-2.945,6.265-5.095c1.146-2.065,1.793-3.038,2.769-3.038s1.622,0.973,2.769,3.038c1.194,2.15,2.83,5.095,6.266,5.095   s5.071-2.945,6.266-5.095c1.146-2.065,1.793-3.038,2.769-3.038s1.622,0.973,2.769,3.038c1.195,2.15,2.831,5.095,6.267,5.095   c3.438,0,5.074-2.945,6.269-5.096c1.147-2.064,1.795-3.037,2.771-3.037s1.623,0.973,2.771,3.038c1.194,2.15,2.83,5.095,6.266,5.095   c3.437,0,5.073-2.944,6.269-5.094c1.148-2.066,1.796-3.039,2.774-3.039c0.978,0,1.626,0.973,2.773,3.038   c1.195,2.15,2.832,5.095,6.27,5.095c1.104,0,2-0.896,2-2s-0.896-2-2-2c-0.978,0-1.626-0.973-2.773-3.038   c-1.195-2.15-2.832-5.095-6.27-5.095s-5.075,2.945-6.271,5.095c-1.148,2.065-1.796,3.038-2.772,3.038   c-0.976,0-1.622-0.973-2.77-3.037c-1.194-2.151-2.83-5.096-6.267-5.096c-3.436,0-5.072,2.944-6.267,5.094   c-1.147,2.065-1.796,3.039-2.772,3.039c-0.976,0-1.623-0.973-2.77-3.038c-1.194-2.15-2.831-5.095-6.266-5.095   s-5.071,2.945-6.266,5.095c-1.146,2.065-1.793,3.038-2.769,3.038s-1.622-0.973-2.769-3.038c-1.194-2.15-2.83-5.095-6.266-5.095   s-5.071,2.945-6.266,5.096c-1.146,2.064-1.793,3.037-2.768,3.037c-0.976,0-1.623-0.973-2.77-3.038   c-1.195-2.15-2.83-5.095-6.266-5.095c-1.104,0-2,0.896-2,2S8.229,34.267,9.333,34.267z" fill="#E4E9EA"/><path d="M90.667,52.066c-0.978,0-1.625-0.973-2.773-3.038c-1.195-2.15-2.832-5.095-6.27-5.095   s-5.075,2.945-6.271,5.096c-1.148,2.065-1.796,3.038-2.772,3.038c-0.975,0-1.622-0.973-2.77-3.038   c-1.194-2.15-2.83-5.096-6.267-5.096c-3.436,0-5.072,2.944-6.267,5.095c-1.147,2.065-1.796,3.039-2.772,3.039   c-0.976,0-1.623-0.973-2.77-3.038c-1.194-2.15-2.831-5.095-6.266-5.095s-5.071,2.945-6.266,5.096   c-1.146,2.065-1.793,3.038-2.769,3.038s-1.622-0.973-2.769-3.038c-1.194-2.15-2.83-5.096-6.266-5.096s-5.071,2.945-6.266,5.096   c-1.146,2.065-1.793,3.038-2.768,3.038c-0.976,0-1.623-0.973-2.77-3.038c-1.194-2.15-2.83-5.095-6.266-5.095c-1.104,0-2,0.896-2,2   s0.896,2,2,2c0.975,0,1.622,0.973,2.769,3.038c1.195,2.15,2.831,5.096,6.267,5.096c3.435,0,5.071-2.945,6.265-5.096   c1.146-2.065,1.793-3.038,2.769-3.038s1.622,0.973,2.769,3.038c1.194,2.15,2.83,5.096,6.266,5.096s5.071-2.945,6.266-5.096   c1.146-2.065,1.793-3.038,2.769-3.038s1.622,0.973,2.769,3.038c1.195,2.15,2.831,5.096,6.267,5.096   c3.438,0,5.074-2.945,6.269-5.096c1.147-2.065,1.795-3.038,2.771-3.038s1.623,0.973,2.771,3.039   c1.194,2.149,2.83,5.095,6.266,5.095c3.437,0,5.073-2.944,6.269-5.094c1.148-2.066,1.797-3.04,2.774-3.04s1.625,0.973,2.773,3.039   c1.195,2.15,2.832,5.095,6.27,5.095c1.104,0,2-0.896,2-2S91.771,52.066,90.667,52.066z" fill="#EA075F"/><path d="M90.667,65.733c-0.978,0-1.625-0.973-2.773-3.038c-1.195-2.15-2.832-5.096-6.27-5.096   s-5.075,2.945-6.271,5.096c-1.148,2.065-1.796,3.038-2.772,3.038c-0.975,0-1.622-0.973-2.77-3.038   c-1.194-2.15-2.83-5.096-6.267-5.096c-3.436,0-5.072,2.944-6.267,5.095c-1.147,2.065-1.796,3.039-2.772,3.039   c-0.976,0-1.623-0.973-2.77-3.038c-1.194-2.15-2.831-5.096-6.266-5.096s-5.071,2.945-6.266,5.096   c-1.147,2.065-1.794,3.038-2.769,3.038s-1.622-0.973-2.769-3.038c-1.194-2.15-2.83-5.096-6.266-5.096s-5.071,2.945-6.266,5.096   c-1.146,2.065-1.793,3.038-2.768,3.038c-0.976,0-1.623-0.973-2.77-3.038c-1.194-2.15-2.83-5.096-6.266-5.096c-1.104,0-2,0.896-2,2   s0.896,2,2,2c0.975,0,1.622,0.973,2.769,3.038c1.194,2.15,2.831,5.096,6.267,5.096c3.435,0,5.071-2.945,6.265-5.096   c1.146-2.065,1.793-3.038,2.769-3.038c0.975,0,1.622,0.973,2.769,3.038c1.194,2.15,2.83,5.096,6.266,5.096s5.071-2.945,6.266-5.096   c1.147-2.065,1.794-3.038,2.769-3.038c0.975,0,1.622,0.973,2.769,3.038c1.195,2.15,2.831,5.096,6.267,5.096   c3.438,0,5.074-2.945,6.269-5.096c1.147-2.065,1.795-3.038,2.771-3.038s1.623,0.973,2.771,3.038c1.194,2.15,2.83,5.096,6.266,5.096   c3.437,0,5.073-2.944,6.269-5.095c1.148-2.065,1.797-3.039,2.774-3.039s1.625,0.973,2.773,3.038c1.195,2.15,2.832,5.096,6.27,5.096   c1.104,0,2-0.896,2-2S91.771,65.733,90.667,65.733z" fill="#E4E9EA"/></g></svg>